<svg viewBox="0 0 100 100" xmlns="http://www.w3.org/2000/svg">
  <path d="M58,78 C90,82 96,45 74,20 C68,16 62,18 60,24 C78,32 80,58 62,68 C56,71 54,76 58,78 Z" fill="#B98EFF"/>
  <ellipse cx="42" cy="72" rx="20" ry="18" fill="#FF8FB1"/>
  <circle cx="40" cy="42" r="23" fill="#FF8FB1"/>
  <path d="M22,28 C18,18 26,14 32,22 Z" fill="#FF8FB1"/>
  <path d="M58,28 C62,18 54,14 48,22 Z" fill="#FF8FB1"/>
  <path d="M24,25 C22,20 26,18 29,22 Z" fill="#D9648F"/>
  <path d="M56,25 C58,20 54,18 51,22 Z" fill="#D9648F"/>
  <circle cx="32" cy="40" r="3.2" fill="#221E33"/>
  <circle cx="48" cy="40" r="3.2" fill="#221E33"/>
  <ellipse cx="40" cy="50" rx="4" ry="3" fill="#221E33"/>
  <ellipse cx="34" cy="76" rx="6" ry="8" fill="#FFB8CE"/>
</svg>
